<svg width="430" height="133" viewBox="0 0 430 133" fill="none" xmlns="http://www.w3.org/2000/svg">
  <rect width="430" height="133" rx="20" fill="black"/>
  <path d="M204.3 65.9439V85.4342H191.848V39.2351H203.849V57.3719H204.209C204.992 55.1612 206.293 53.4393 208.112 52.2061C209.932 50.9579 212.12 50.3338 214.677 50.3338C217.129 50.3338 219.256 50.8902 221.061 52.0031C222.88 53.1159 224.287 54.6498 225.279 56.6049C226.287 58.5599 226.783 60.8007 226.768 63.3272V85.4342H214.316V65.9439C214.331 64.2296 213.903 62.8836 213.03 61.9061C212.173 60.9285 210.947 60.4398 209.353 60.4398C208.345 60.4398 207.458 60.6654 206.691 61.1165C205.939 61.5527 205.353 62.1843 204.932 63.0114C204.526 63.8235 204.315 64.801 204.3 65.9439ZM246.024 86.0658C242.325 86.0658 239.136 85.3589 236.46 83.9453C233.798 82.5166 231.745 80.4714 230.301 77.8095C228.872 75.1326 228.158 71.9293 228.158 68.1998C228.158 64.6205 228.879 61.4925 230.324 58.8156C231.767 56.1387 233.804 54.0559 236.437 52.567C239.069 51.0782 242.174 50.3338 245.753 50.3338C248.37 50.3338 250.738 50.7399 252.859 51.5519C254.98 52.364 256.792 53.5445 258.296 55.0935C259.8 56.6275 260.958 58.4923 261.77 60.6879C262.582 62.8836 262.988 65.3574 262.988 68.1096V70.9969H232.038V64.1394H251.529C251.513 63.1468 251.258 62.2745 250.761 61.5226C250.28 60.7556 249.626 60.1616 248.799 59.7405C247.986 59.3043 247.062 59.0863 246.024 59.0863C245.016 59.0863 244.091 59.3043 243.25 59.7405C242.407 60.1616 241.73 60.7481 241.219 61.5001C240.723 62.2519 240.46 63.1317 240.43 64.1394V71.5384C240.43 72.6512 240.663 73.6438 241.129 74.516C241.595 75.3883 242.264 76.0726 243.136 76.5688C244.009 77.0651 245.061 77.3133 246.295 77.3133C247.151 77.3133 247.933 77.193 248.64 76.9523C249.363 76.7117 249.979 76.3658 250.49 75.9146C251.001 75.4484 251.378 74.892 251.618 74.2454H262.988C262.597 76.6515 261.671 78.7419 260.213 80.5165C258.754 82.276 256.822 83.6446 254.416 84.622C252.025 85.5845 249.227 86.0658 246.024 86.0658ZM285.328 50.7849V59.8081H262.139V50.7849H285.328ZM266.56 85.4342V49.7924C266.56 46.935 267.071 44.5665 268.094 42.6866C269.117 40.8068 270.561 39.4006 272.425 38.4682C274.29 37.5358 276.485 37.0696 279.012 37.0696C280.592 37.0696 282.125 37.1899 283.614 37.4306C285.118 37.6712 286.23 37.8817 286.953 38.0621L285.148 46.9951C284.697 46.8599 284.171 46.7545 283.569 46.6793C282.968 46.5891 282.441 46.544 281.99 46.544C280.817 46.544 280.027 46.7922 279.621 47.2884C279.215 47.7847 279.012 48.4389 279.012 49.251V85.4342H266.56ZM302.188 86.0658C298.488 86.0658 295.3 85.3589 292.623 83.9453C289.961 82.5166 287.909 80.4714 286.465 77.8095C285.036 75.1326 284.322 71.9293 284.322 68.1998C284.322 64.6205 285.043 61.4925 286.487 58.8156C287.931 56.1387 289.968 54.0559 292.6 52.567C295.233 51.0782 298.337 50.3338 301.917 50.3338C304.534 50.3338 306.902 50.7399 309.022 51.5519C311.143 52.364 312.956 53.5445 314.46 55.0935C315.963 56.6275 317.122 58.4923 317.934 60.6879C318.745 62.8836 319.151 65.3574 319.151 68.1096V70.9969H288.201V64.1394H307.692C307.676 63.1468 307.421 62.2745 306.925 61.5226C306.444 60.7556 305.79 60.1616 304.963 59.7405C304.15 59.3043 303.226 59.0863 302.188 59.0863C301.18 59.0863 300.255 59.3043 299.413 59.7405C298.571 60.1616 297.894 60.7481 297.383 61.5001C296.886 62.2519 296.623 63.1317 296.594 64.1394V71.5384C296.594 72.6512 296.827 73.6438 297.292 74.516C297.759 75.3883 298.428 76.0726 299.3 76.5688C300.173 77.0651 301.225 77.3133 302.459 77.3133C303.315 77.3133 304.097 77.193 304.804 76.9523C305.527 76.7117 306.143 76.3658 306.654 75.9146C307.165 75.4484 307.541 74.892 307.782 74.2454H319.151C318.76 76.6515 317.835 78.7419 316.377 80.5165C314.918 82.276 312.986 83.6446 310.58 84.622C308.189 85.5845 305.391 86.0658 302.188 86.0658ZM352.41 62.0639H340.951C340.89 61.3571 340.642 60.7481 340.206 60.2367C339.771 59.7255 339.206 59.3344 338.514 59.0637C337.838 58.778 337.086 58.6351 336.259 58.6351C335.191 58.6351 334.274 58.8307 333.507 59.2216C332.739 59.6126 332.363 60.1691 332.379 60.8909C332.363 61.4023 332.582 61.876 333.033 62.3121C333.499 62.7482 334.394 63.0866 335.717 63.3272L342.755 64.5905C346.305 65.2371 348.944 66.3274 350.673 67.8614C352.418 69.3804 353.297 71.4181 353.312 73.9746C353.297 76.441 352.561 78.584 351.102 80.4037C349.659 82.2083 347.68 83.607 345.169 84.5995C342.673 85.577 339.823 86.0658 336.619 86.0658C331.326 86.0658 327.183 84.983 324.191 82.8174C321.213 80.6518 319.55 77.7944 319.205 74.2454H331.566C331.732 75.3431 332.274 76.1929 333.191 76.7944C334.123 77.381 335.296 77.6741 336.71 77.6741C337.853 77.6741 338.793 77.4786 339.53 77.0876C340.282 76.6967 340.665 76.1403 340.68 75.4184C340.665 74.7566 340.334 74.2303 339.687 73.8393C339.056 73.4482 338.064 73.1325 336.71 72.8918L330.574 71.809C327.04 71.1925 324.393 70.0195 322.633 68.29C320.874 66.5605 320.002 64.3348 320.017 61.6128C320.002 59.2067 320.633 57.1688 321.912 55.4996C323.205 53.8152 325.047 52.537 327.438 51.6647C329.845 50.7774 332.695 50.3338 335.988 50.3338C340.996 50.3338 344.944 51.3714 347.831 53.4468C350.733 55.5221 352.26 58.3945 352.41 62.0639ZM375.253 50.7849V59.8081H352.424V50.7849H375.253ZM356.846 42.4836H369.297V74.2904C369.297 74.7717 369.381 75.1778 369.545 75.5086C369.711 75.8244 369.967 76.065 370.313 76.2305C370.659 76.3809 371.103 76.456 371.644 76.456C372.02 76.456 372.456 76.4109 372.952 76.3207C373.463 76.2305 373.839 76.1552 374.08 76.0951L375.885 84.8477C375.328 85.0131 374.531 85.2161 373.494 85.4567C372.47 85.6974 371.253 85.8552 369.839 85.9304C366.982 86.0808 364.583 85.7876 362.643 85.0506C360.703 84.2988 359.245 83.1182 358.267 81.5091C357.289 79.8999 356.816 77.8847 356.846 75.4634V42.4836ZM393.161 86.0658C389.401 86.0658 386.184 85.3214 383.507 83.8326C380.83 82.3286 378.777 80.2383 377.348 77.5614C375.92 74.8695 375.205 71.7489 375.205 68.1998C375.205 64.6506 375.92 61.5376 377.348 58.8607C378.777 56.1688 380.83 54.0784 383.507 52.5896C386.184 51.0857 389.401 50.3338 393.161 50.3338C396.921 50.3338 400.139 51.0857 402.816 52.5896C405.493 54.0784 407.545 56.1688 408.975 58.8607C410.403 61.5376 411.118 64.6506 411.118 68.1998C411.118 71.7489 410.403 74.8695 408.975 77.5614C407.545 80.2383 405.493 82.3286 402.816 83.8326C400.139 85.3214 396.921 86.0658 393.161 86.0658ZM393.252 76.862C394.305 76.862 395.214 76.5087 395.981 75.8019C396.748 75.095 397.342 74.0874 397.763 72.7791C398.185 71.4707 398.395 69.9142 398.395 68.1096C398.395 66.2898 398.185 64.7333 397.763 63.44C397.342 62.1316 396.748 61.1241 395.981 60.4173C395.214 59.7104 394.305 59.357 393.252 59.357C392.139 59.357 391.184 59.7104 390.387 60.4173C389.59 61.1241 388.981 62.1316 388.56 63.44C388.138 64.7333 387.928 66.2898 387.928 68.1096C387.928 69.9142 388.138 71.4707 388.56 72.7791C388.981 74.0874 389.59 75.095 390.387 75.8019C391.184 76.5087 392.139 76.862 393.252 76.862Z" fill="white"/>
  <path d="M68.9388 34.4592C72.854 29.5184 72.0226 22.3392 67.0817 18.424C62.1409 14.5088 54.9617 15.3403 51.0465 20.2811L21.089 58.0865C17.1739 63.0273 18.0053 70.2065 22.9461 74.1217C27.887 78.0368 35.0662 77.2054 38.9814 72.2646L68.9388 34.4592Z" fill="white"/>
  <path d="M118.057 96.1115C114.142 101.052 114.974 108.232 119.914 112.147C124.855 116.062 132.034 115.231 135.95 110.29L165.907 72.4845C169.822 67.5437 168.991 60.3645 164.05 56.4493C159.109 52.5341 151.93 53.3655 148.015 58.3063L118.057 96.1115Z" fill="white"/>
  <path d="M21.4344 72.8264C17.5192 67.8856 18.3506 60.7064 23.2915 56.7912C28.2323 52.876 35.4115 53.7075 39.3267 58.6483L69.2842 96.4536C73.1994 101.394 72.368 108.574 67.4271 112.489C62.4863 116.404 55.3071 115.573 51.3919 110.632L21.4344 72.8264Z" fill="url(#paint0_linear_1_4)" fill-opacity="0.55"/>
  <path d="M165.563 57.7441C169.478 62.6849 168.646 69.8642 163.705 73.7793C158.765 77.6945 151.585 76.8631 147.67 71.9223L117.713 34.117C113.798 29.1761 114.629 21.9969 119.57 18.0817C124.511 14.1666 131.69 14.998 135.605 19.9388L165.563 57.7441Z" fill="url(#paint1_linear_1_4)" fill-opacity="0.55"/>
  <path d="M134.448 33.1243C138.363 28.1834 137.532 21.0042 132.591 17.0891C127.65 13.1739 120.471 14.0053 116.556 18.9462L53.3268 98.7388C49.4116 103.68 50.243 110.859 55.1839 114.774C60.1247 118.689 67.3039 117.858 71.2191 112.917L134.448 33.1243Z" fill="url(#paint2_linear_1_4)"/>
  <defs>
  <linearGradient id="paint0_linear_1_4" x1="18.8118" y1="55.1612" x2="80.3503" y2="122.159" gradientUnits="userSpaceOnUse">
  <stop stop-color="#3237AE"/>
  <stop offset="1" stop-color="white"/>
  </linearGradient>
  <linearGradient id="paint1_linear_1_4" x1="168.185" y1="75.4093" x2="106.647" y2="8.41187" gradientUnits="userSpaceOnUse">
  <stop stop-color="#3237AE"/>
  <stop offset="1" stop-color="white"/>
  </linearGradient>
  <linearGradient id="paint2_linear_1_4" x1="132.591" y1="17.0891" x2="55.1838" y2="114.774" gradientUnits="userSpaceOnUse">
  <stop stop-color="#EFE7C8"/>
  <stop offset="1" stop-color="#CDB655"/>
  </linearGradient>
  </defs>
  </svg>
  