<svg width="400" height="113" viewBox="0 0 400 113" fill="none" xmlns="http://www.w3.org/2000/svg">
  <g clip-path="url(#clip0_196_52)">
  <path d="M190.3 55.9439V75.4342H177.848V29.2351H189.849V47.3719H190.209C190.992 45.1612 192.293 43.4393 194.112 42.2061C195.932 40.9579 198.12 40.3338 200.677 40.3338C203.129 40.3338 205.256 40.8902 207.061 42.0031C208.88 43.1159 210.287 44.6498 211.279 46.6049C212.287 48.5599 212.783 50.8007 212.768 53.3272V75.4342H200.316V55.9439C200.331 54.2296 199.903 52.8836 199.03 51.9061C198.173 50.9285 196.947 50.4398 195.353 50.4398C194.345 50.4398 193.458 50.6654 192.691 51.1165C191.939 51.5527 191.353 52.1843 190.932 53.0114C190.526 53.8235 190.315 54.801 190.3 55.9439ZM232.024 76.0658C228.325 76.0658 225.136 75.3589 222.46 73.9453C219.798 72.5166 217.745 70.4714 216.301 67.8095C214.872 65.1326 214.158 61.9293 214.158 58.1998C214.158 54.6205 214.879 51.4925 216.324 48.8156C217.767 46.1387 219.804 44.0559 222.437 42.567C225.069 41.0782 228.174 40.3338 231.753 40.3338C234.37 40.3338 236.738 40.7399 238.859 41.5519C240.98 42.364 242.792 43.5445 244.296 45.0935C245.8 46.6275 246.958 48.4923 247.77 50.6879C248.582 52.8836 248.988 55.3574 248.988 58.1096V60.9969H218.038V54.1394H237.529C237.513 53.1468 237.258 52.2745 236.761 51.5226C236.28 50.7556 235.626 50.1616 234.799 49.7405C233.986 49.3043 233.062 49.0863 232.024 49.0863C231.016 49.0863 230.091 49.3043 229.25 49.7405C228.407 50.1616 227.73 50.7481 227.219 51.5001C226.723 52.2519 226.46 53.1317 226.43 54.1394V61.5384C226.43 62.6512 226.663 63.6438 227.129 64.516C227.595 65.3883 228.264 66.0726 229.136 66.5688C230.009 67.0651 231.061 67.3133 232.295 67.3133C233.151 67.3133 233.933 67.193 234.64 66.9523C235.363 66.7117 235.979 66.3658 236.49 65.9146C237.001 65.4484 237.378 64.892 237.618 64.2454H248.988C248.597 66.6515 247.671 68.7419 246.213 70.5165C244.754 72.276 242.822 73.6446 240.416 74.622C238.025 75.5845 235.227 76.0658 232.024 76.0658ZM271.328 40.7849V49.8081H248.139V40.7849H271.328ZM252.56 75.4342V39.7924C252.56 36.935 253.071 34.5665 254.094 32.6866C255.117 30.8068 256.561 29.4006 258.425 28.4682C260.29 27.5358 262.485 27.0696 265.012 27.0696C266.592 27.0696 268.125 27.1899 269.614 27.4306C271.118 27.6712 272.23 27.8817 272.953 28.0621L271.148 36.9951C270.697 36.8599 270.171 36.7545 269.569 36.6793C268.968 36.5891 268.441 36.544 267.99 36.544C266.817 36.544 266.027 36.7922 265.621 37.2884C265.215 37.7847 265.012 38.4389 265.012 39.251V75.4342H252.56ZM288.188 76.0658C284.488 76.0658 281.3 75.3589 278.623 73.9453C275.961 72.5166 273.909 70.4714 272.465 67.8095C271.036 65.1326 270.322 61.9293 270.322 58.1998C270.322 54.6205 271.043 51.4925 272.487 48.8156C273.931 46.1387 275.968 44.0559 278.6 42.567C281.233 41.0782 284.337 40.3338 287.917 40.3338C290.534 40.3338 292.902 40.7399 295.022 41.5519C297.143 42.364 298.956 43.5445 300.46 45.0935C301.963 46.6275 303.122 48.4923 303.934 50.6879C304.745 52.8836 305.151 55.3574 305.151 58.1096V60.9969H274.201V54.1394H293.692C293.676 53.1468 293.421 52.2745 292.925 51.5226C292.444 50.7556 291.79 50.1616 290.963 49.7405C290.15 49.3043 289.226 49.0863 288.188 49.0863C287.18 49.0863 286.255 49.3043 285.413 49.7405C284.571 50.1616 283.894 50.7481 283.383 51.5001C282.886 52.2519 282.623 53.1317 282.594 54.1394V61.5384C282.594 62.6512 282.827 63.6438 283.292 64.516C283.759 65.3883 284.428 66.0726 285.3 66.5688C286.173 67.0651 287.225 67.3133 288.459 67.3133C289.315 67.3133 290.097 67.193 290.804 66.9523C291.527 66.7117 292.143 66.3658 292.654 65.9146C293.165 65.4484 293.541 64.892 293.782 64.2454H305.151C304.76 66.6515 303.835 68.7419 302.377 70.5165C300.918 72.276 298.986 73.6446 296.58 74.622C294.189 75.5845 291.391 76.0658 288.188 76.0658ZM338.41 52.0639H326.951C326.89 51.3571 326.642 50.7481 326.206 50.2367C325.771 49.7255 325.206 49.3344 324.514 49.0637C323.838 48.778 323.086 48.6351 322.259 48.6351C321.191 48.6351 320.274 48.8307 319.507 49.2216C318.739 49.6126 318.363 50.1691 318.379 50.8909C318.363 51.4023 318.582 51.876 319.033 52.3121C319.499 52.7482 320.394 53.0866 321.717 53.3272L328.755 54.5905C332.305 55.2371 334.944 56.3274 336.673 57.8614C338.418 59.3804 339.297 61.4181 339.312 63.9746C339.297 66.441 338.561 68.584 337.102 70.4037C335.659 72.2083 333.68 73.607 331.169 74.5995C328.673 75.577 325.823 76.0658 322.619 76.0658C317.326 76.0658 313.183 74.983 310.191 72.8174C307.213 70.6518 305.55 67.7944 305.205 64.2454H317.566C317.732 65.3431 318.274 66.1929 319.191 66.7944C320.123 67.381 321.296 67.6741 322.71 67.6741C323.853 67.6741 324.793 67.4786 325.53 67.0876C326.282 66.6967 326.665 66.1403 326.68 65.4184C326.665 64.7566 326.334 64.2303 325.687 63.8393C325.056 63.4482 324.064 63.1325 322.71 62.8918L316.574 61.809C313.04 61.1925 310.393 60.0195 308.633 58.29C306.874 56.5605 306.002 54.3348 306.017 51.6128C306.002 49.2067 306.633 47.1688 307.912 45.4996C309.205 43.8152 311.047 42.537 313.438 41.6647C315.845 40.7774 318.695 40.3338 321.988 40.3338C326.996 40.3338 330.944 41.3714 333.831 43.4468C336.733 45.5221 338.26 48.3945 338.41 52.0639ZM361.253 40.7849V49.8081H338.424V40.7849H361.253ZM342.846 32.4836H355.297V64.2904C355.297 64.7717 355.381 65.1778 355.545 65.5086C355.711 65.8244 355.967 66.065 356.313 66.2305C356.659 66.3809 357.103 66.456 357.644 66.456C358.02 66.456 358.456 66.4109 358.952 66.3207C359.463 66.2305 359.839 66.1552 360.08 66.0951L361.885 74.8477C361.328 75.0131 360.531 75.2161 359.494 75.4567C358.47 75.6974 357.253 75.8552 355.839 75.9304C352.982 76.0808 350.583 75.7876 348.643 75.0506C346.703 74.2988 345.245 73.1182 344.267 71.5091C343.289 69.8999 342.816 67.8847 342.846 65.4634V32.4836ZM379.161 76.0658C375.401 76.0658 372.184 75.3214 369.507 73.8326C366.83 72.3286 364.777 70.2383 363.348 67.5614C361.92 64.8695 361.205 61.7489 361.205 58.1998C361.205 54.6506 361.92 51.5376 363.348 48.8607C364.777 46.1688 366.83 44.0784 369.507 42.5896C372.184 41.0857 375.401 40.3338 379.161 40.3338C382.921 40.3338 386.139 41.0857 388.816 42.5896C391.493 44.0784 393.545 46.1688 394.975 48.8607C396.403 51.5376 397.118 54.6506 397.118 58.1998C397.118 61.7489 396.403 64.8695 394.975 67.5614C393.545 70.2383 391.493 72.3286 388.816 73.8326C386.139 75.3214 382.921 76.0658 379.161 76.0658ZM379.252 66.862C380.305 66.862 381.214 66.5087 381.981 65.8019C382.748 65.095 383.342 64.0874 383.763 62.7791C384.185 61.4707 384.395 59.9142 384.395 58.1096C384.395 56.2898 384.185 54.7333 383.763 53.44C383.342 52.1316 382.748 51.1241 381.981 50.4173C381.214 49.7104 380.305 49.357 379.252 49.357C378.139 49.357 377.184 49.7104 376.387 50.4173C375.59 51.1241 374.981 52.1316 374.56 53.44C374.138 54.7333 373.928 56.2898 373.928 58.1096C373.928 59.9142 374.138 61.4707 374.56 62.7791C374.981 64.0874 375.59 65.095 376.387 65.8019C377.184 66.5087 378.139 66.862 379.252 66.862Z" fill="white"/>
  <path d="M54.9388 24.4592C58.854 19.5184 58.0226 12.3392 53.0817 8.42402C48.1409 4.50884 40.9617 5.34029 37.0465 10.2811L7.08905 48.0865C3.17387 53.0273 4.00532 60.2065 8.94614 64.1217C13.887 68.0368 21.0662 67.2054 24.9814 62.2646L54.9388 24.4592Z" fill="white"/>
  <path d="M104.057 86.1115C100.142 91.0523 100.974 98.2316 105.914 102.147C110.855 106.062 118.034 105.231 121.95 100.29L151.907 62.4845C155.822 57.5437 154.991 50.3645 150.05 46.4493C145.109 42.5341 137.93 43.3655 134.015 48.3063L104.057 86.1115Z" fill="white"/>
  <path d="M7.43439 62.8264C3.5192 57.8856 4.35065 50.7064 9.29147 46.7912C14.2323 42.876 21.4115 43.7075 25.3267 48.6483L55.2842 86.4536C59.1994 91.3944 58.368 98.5736 53.4271 102.489C48.4863 106.404 41.3071 105.573 37.3919 100.632L7.43439 62.8264Z" fill="#3237AE"/>
  <path d="M7.43439 62.8264C3.5192 57.8856 4.35065 50.7064 9.29147 46.7912C14.2323 42.876 21.4115 43.7075 25.3267 48.6483L55.2842 86.4536C59.1994 91.3944 58.368 98.5736 53.4271 102.489C48.4863 106.404 41.3071 105.573 37.3919 100.632L7.43439 62.8264Z" fill="url(#paint0_linear_196_52)" fill-opacity="0.55"/>
  <path d="M151.563 47.7441C155.478 52.6849 154.646 59.8642 149.705 63.7793C144.765 67.6945 137.585 66.8631 133.67 61.9223L103.713 24.117C99.7975 19.1761 100.629 11.9969 105.57 8.08174C110.511 4.16655 117.69 4.998 121.605 9.93882L151.563 47.7441Z" fill="#3237AE"/>
  <path d="M151.563 47.7441C155.478 52.6849 154.646 59.8642 149.705 63.7793C144.765 67.6945 137.585 66.8631 133.67 61.9223L103.713 24.117C99.7975 19.1761 100.629 11.9969 105.57 8.08174C110.511 4.16655 117.69 4.998 121.605 9.93882L151.563 47.7441Z" fill="url(#paint1_linear_196_52)" fill-opacity="0.55"/>
  <path d="M120.448 23.1243C124.363 18.1834 123.532 11.0042 118.591 7.08906C113.65 3.17388 106.471 4.00533 102.556 8.94615L39.3268 88.7388C35.4116 93.6796 36.243 100.859 41.1839 104.774C46.1247 108.689 53.3039 107.858 57.2191 102.917L120.448 23.1243Z" fill="url(#paint2_linear_196_52)"/>
  </g>
  <defs>
  <linearGradient id="paint0_linear_196_52" x1="4.81179" y1="45.1612" x2="66.3503" y2="112.159" gradientUnits="userSpaceOnUse">
  <stop stop-color="#3237AE"/>
  <stop offset="1" stop-color="white"/>
  </linearGradient>
  <linearGradient id="paint1_linear_196_52" x1="154.185" y1="65.4093" x2="92.6466" y2="-1.58813" gradientUnits="userSpaceOnUse">
  <stop stop-color="#3237AE"/>
  <stop offset="1" stop-color="white"/>
  </linearGradient>
  <linearGradient id="paint2_linear_196_52" x1="118.591" y1="7.08905" x2="41.1838" y2="104.774" gradientUnits="userSpaceOnUse">
  <stop stop-color="#EFE7C8"/>
  <stop offset="1" stop-color="#CDB655"/>
  </linearGradient>
  <clipPath id="clip0_196_52">
  <rect width="400" height="112.159" fill="white"/>
  </clipPath>
  </defs>
  </svg>
  