<svg width="220" height="62" viewBox="0 0 220 62" fill="none" xmlns="http://www.w3.org/2000/svg">
  <g clip-path="url(#clip0_196_236)">
  <path d="M104.665 30.7692V41.4888H97.8164V16.0794H104.417V26.0546H104.615C105.045 24.8387 105.761 23.8917 106.762 23.2134C107.763 22.5269 108.966 22.1836 110.372 22.1836C111.721 22.1836 112.89 22.4897 113.883 23.1017C114.884 23.7138 115.658 24.5575 116.204 25.6327C116.758 26.708 117.031 27.9404 117.022 29.33V41.4888H110.174V30.7692C110.182 29.8263 109.946 29.086 109.467 28.5484C108.995 28.0107 108.321 27.7419 107.444 27.7419C106.89 27.7419 106.402 27.866 105.98 28.1141C105.567 28.354 105.244 28.7014 105.013 29.1563C104.789 29.603 104.673 30.1406 104.665 30.7692ZM127.613 41.8362C125.578 41.8362 123.825 41.4475 122.353 40.67C120.889 39.8842 119.76 38.7593 118.965 37.2953C118.18 35.823 117.787 34.0612 117.787 32.0099C117.787 30.0414 118.184 28.3209 118.978 26.8486C119.772 25.3763 120.892 24.2308 122.34 23.4119C123.788 22.5931 125.495 22.1836 127.464 22.1836C128.904 22.1836 130.206 22.407 131.372 22.8536C132.539 23.3002 133.536 23.9495 134.363 24.8015C135.19 25.6452 135.827 26.6708 136.273 27.8784C136.72 29.086 136.943 30.4466 136.943 31.9603V33.5484H119.921V29.7767H130.641C130.632 29.2308 130.492 28.7511 130.219 28.3375C129.954 27.9157 129.594 27.5889 129.139 27.3573C128.692 27.1174 128.184 26.9975 127.613 26.9975C127.059 26.9975 126.55 27.1174 126.087 27.3573C125.624 27.5889 125.251 27.9115 124.97 28.3251C124.697 28.7386 124.553 29.2225 124.536 29.7767V33.8462C124.536 34.4582 124.665 35.0041 124.921 35.4839C125.177 35.9636 125.545 36.34 126.025 36.6129C126.505 36.8859 127.083 37.0223 127.762 37.0223C128.233 37.0223 128.663 36.9562 129.052 36.8238C129.449 36.6915 129.788 36.5012 130.07 36.2531C130.351 35.9967 130.558 35.6907 130.69 35.335H136.943C136.728 36.6584 136.219 37.8081 135.417 38.7841C134.615 39.7519 133.552 40.5046 132.229 41.0422C130.914 41.5715 129.375 41.8362 127.613 41.8362ZM149.23 22.4318V27.3945H136.476V22.4318H149.23ZM138.908 41.4888V21.8858C138.908 20.3143 139.189 19.0116 139.752 17.9777C140.314 16.9438 141.108 16.1704 142.134 15.6576C143.159 15.1447 144.367 14.8883 145.757 14.8883C146.625 14.8883 147.469 14.9545 148.288 15.0869C149.115 15.2192 149.727 15.335 150.124 15.4342L149.132 20.3474C148.883 20.273 148.594 20.215 148.263 20.1737C147.932 20.124 147.642 20.0993 147.394 20.0993C146.749 20.0993 146.315 20.2357 146.091 20.5087C145.868 20.7816 145.757 21.1415 145.757 21.5881V41.4888H138.908ZM158.503 41.8362C156.469 41.8362 154.715 41.4475 153.243 40.67C151.779 39.8842 150.65 38.7593 149.855 37.2953C149.07 35.823 148.677 34.0612 148.677 32.0099C148.677 30.0414 149.074 28.3209 149.868 26.8486C150.662 25.3763 151.782 24.2308 153.23 23.4119C154.678 22.5931 156.386 22.1836 158.354 22.1836C159.794 22.1836 161.096 22.407 162.262 22.8536C163.429 23.3002 164.426 23.9495 165.253 24.8015C166.08 25.6452 166.717 26.6708 167.163 27.8784C167.61 29.086 167.833 30.4466 167.833 31.9603V33.5484H150.811V29.7767H161.531C161.522 29.2308 161.382 28.7511 161.109 28.3375C160.844 27.9157 160.484 27.5889 160.029 27.3573C159.582 27.1174 159.074 26.9975 158.503 26.9975C157.949 26.9975 157.44 27.1174 156.977 27.3573C156.514 27.5889 156.142 27.9115 155.86 28.3251C155.587 28.7386 155.443 29.2225 155.426 29.7767V33.8462C155.426 34.4582 155.555 35.0041 155.811 35.4839C156.067 35.9636 156.435 36.34 156.915 36.6129C157.395 36.8859 157.974 37.0223 158.652 37.0223C159.123 37.0223 159.553 36.9562 159.942 36.8238C160.34 36.6915 160.679 36.5012 160.96 36.2531C161.241 35.9967 161.448 35.6907 161.58 35.335H167.833C167.618 36.6584 167.109 37.8081 166.307 38.7841C165.505 39.7519 164.442 40.5046 163.119 41.0422C161.804 41.5715 160.265 41.8362 158.503 41.8362ZM186.125 28.6352H179.823C179.79 28.2465 179.653 27.9115 179.413 27.6303C179.174 27.3491 178.863 27.134 178.483 26.9851C178.111 26.8279 177.697 26.7494 177.242 26.7494C176.655 26.7494 176.151 26.8569 175.729 27.072C175.307 27.287 175.1 27.5931 175.108 27.9901C175.1 28.2713 175.22 28.5319 175.468 28.7717C175.724 29.0116 176.217 29.1977 176.944 29.33L180.815 30.0248C182.768 30.3805 184.219 30.9801 185.17 31.8238C186.13 32.6592 186.613 33.78 186.622 35.1861C186.613 36.5426 186.208 37.7213 185.406 38.7221C184.612 39.7146 183.524 40.4839 182.143 41.0298C180.77 41.5674 179.203 41.8362 177.441 41.8362C174.529 41.8362 172.251 41.2407 170.605 40.0496C168.967 38.8586 168.053 37.287 167.863 35.335H174.661C174.753 35.9388 175.051 36.4061 175.555 36.737C176.068 37.0596 176.713 37.2208 177.49 37.2208C178.119 37.2208 178.636 37.1133 179.041 36.8983C179.455 36.6832 179.666 36.3772 179.674 35.9802C179.666 35.6162 179.484 35.3267 179.128 35.1117C178.781 34.8966 178.235 34.7229 177.49 34.5906L174.115 33.995C172.172 33.6559 170.716 33.0108 169.748 32.0596C168.781 31.1083 168.301 29.8842 168.309 28.3871C168.301 27.0637 168.648 25.9429 169.351 25.0248C170.063 24.0984 171.076 23.3954 172.391 22.9156C173.715 22.4276 175.282 22.1836 177.093 22.1836C179.847 22.1836 182.019 22.7543 183.607 23.8958C185.203 25.0372 186.043 26.6171 186.125 28.6352ZM198.689 22.4318V27.3945H186.133V22.4318H198.689ZM188.565 17.866H195.413V35.3598C195.413 35.6245 195.459 35.8478 195.55 36.0298C195.641 36.2035 195.782 36.3358 195.972 36.4268C196.162 36.5095 196.406 36.5508 196.704 36.5508C196.911 36.5508 197.15 36.5261 197.423 36.4764C197.705 36.4268 197.911 36.3854 198.044 36.3524L199.037 41.1663C198.73 41.2573 198.292 41.3689 197.722 41.5012C197.159 41.6336 196.489 41.7204 195.711 41.7618C194.14 41.8445 192.82 41.6832 191.754 41.2779C190.686 40.8644 189.884 40.2151 189.347 39.33C188.809 38.445 188.549 37.3366 188.565 36.0049V17.866ZM208.539 41.8362C206.471 41.8362 204.701 41.4268 203.229 40.608C201.756 39.7808 200.627 38.6311 199.841 37.1588C199.056 35.6783 198.663 33.9619 198.663 32.0099C198.663 30.0579 199.056 28.3457 199.841 26.8735C200.627 25.3929 201.756 24.2432 203.229 23.4243C204.701 22.5972 206.471 22.1836 208.539 22.1836C210.607 22.1836 212.376 22.5972 213.849 23.4243C215.321 24.2432 216.45 25.3929 217.236 26.8735C218.022 28.3457 218.415 30.0579 218.415 32.0099C218.415 33.9619 218.022 35.6783 217.236 37.1588C216.45 38.6311 215.321 39.7808 213.849 40.608C212.376 41.4268 210.607 41.8362 208.539 41.8362ZM208.588 36.7742C209.168 36.7742 209.668 36.5798 210.09 36.1911C210.512 35.8023 210.838 35.2481 211.069 34.5285C211.301 33.8089 211.417 32.9528 211.417 31.9603C211.417 30.9595 211.301 30.1034 211.069 29.3921C210.838 28.6724 210.512 28.1183 210.09 27.7296C209.668 27.3408 209.168 27.1464 208.588 27.1464C207.976 27.1464 207.451 27.3408 207.013 27.7296C206.574 28.1183 206.239 28.6724 206.008 29.3921C205.776 30.1034 205.66 30.9595 205.66 31.9603C205.66 32.9528 205.776 33.8089 206.008 34.5285C206.239 35.2481 206.574 35.8023 207.013 36.1911C207.451 36.5798 207.976 36.7742 208.588 36.7742Z" fill="#171717"/>
  <path d="M30.2164 13.4526C32.3698 10.7351 31.9125 6.78655 29.195 4.63321C26.4776 2.47986 22.529 2.93716 20.3757 5.65461L3.89906 26.4475C1.74571 29.165 2.20301 33.1136 4.92046 35.2669C7.63791 37.4203 11.5865 36.963 13.7398 34.2455L30.2164 13.4526Z" fill="#3237AE"/>
  <path d="M57.2316 47.3613C55.0782 50.0787 55.5355 54.0273 58.253 56.1807C60.9704 58.334 64.919 57.8767 67.0723 55.1593L83.549 34.3664C85.7024 31.649 85.2451 27.7004 82.5277 25.547C79.8102 23.3937 75.8616 23.851 73.7083 26.5684L57.2316 47.3613Z" fill="#3237AE"/>
  <path d="M4.08899 34.5546C1.93564 31.8371 2.39293 27.8886 5.11038 25.7352C7.82783 23.5819 11.7764 24.0392 13.9297 26.7566L30.4064 47.5495C32.5597 50.267 32.1025 54.2155 29.385 56.3689C26.6676 58.5222 22.719 58.065 20.5656 55.3475L4.08899 34.5546Z" fill="#3237AE"/>
  <path d="M4.08899 34.5546C1.93564 31.8371 2.39293 27.8886 5.11038 25.7352C7.82783 23.5819 11.7764 24.0392 13.9297 26.7566L30.4064 47.5495C32.5597 50.267 32.1025 54.2155 29.385 56.3689C26.6676 58.5222 22.719 58.065 20.5656 55.3475L4.08899 34.5546Z" fill="url(#paint0_linear_196_236)" fill-opacity="0.55"/>
  <path d="M83.3593 26.2592C85.5126 28.9767 85.0553 32.9252 82.3379 35.0786C79.6204 37.2319 75.6718 36.7746 73.5185 34.0572L57.0418 13.2643C54.8885 10.5468 55.3458 6.59824 58.0632 4.44489C60.7807 2.29154 64.7293 2.74884 66.8826 5.46629L83.3593 26.2592Z" fill="#3237AE"/>
  <path d="M83.3593 26.2592C85.5126 28.9767 85.0553 32.9252 82.3379 35.0786C79.6204 37.2319 75.6718 36.7746 73.5185 34.0572L57.0418 13.2643C54.8885 10.5468 55.3458 6.59824 58.0632 4.44489C60.7807 2.29154 64.7293 2.74884 66.8826 5.46629L83.3593 26.2592Z" fill="url(#paint1_linear_196_236)" fill-opacity="0.55"/>
  <path d="M66.2465 12.7183C68.3998 10.0009 67.9425 6.05233 65.2251 3.89898C62.5076 1.74563 58.5591 2.20293 56.4057 4.92038L21.6298 48.8064C19.4765 51.5238 19.9338 55.4724 22.6512 57.6257C25.3687 59.7791 29.3173 59.3218 31.4706 56.6043L66.2465 12.7183Z" fill="url(#paint2_linear_196_236)"/>
  </g>
  <defs>
  <linearGradient id="paint0_linear_196_236" x1="2.64656" y1="24.8387" x2="36.4927" y2="61.6873" gradientUnits="userSpaceOnUse">
  <stop/>
  <stop offset="1" stop-opacity="0"/>
  </linearGradient>
  <linearGradient id="paint1_linear_196_236" x1="84.8017" y1="35.9751" x2="50.9555" y2="-0.873534" gradientUnits="userSpaceOnUse">
  <stop/>
  <stop offset="1" stop-opacity="0"/>
  </linearGradient>
  <linearGradient id="paint2_linear_196_236" x1="65.2251" y1="3.89898" x2="22.6512" y2="57.6257" gradientUnits="userSpaceOnUse">
  <stop stop-color="#C9B255"/>
  <stop offset="1" stop-color="#5E5015"/>
  </linearGradient>
  <clipPath id="clip0_196_236">
  <rect width="220" height="61.6873" fill="white"/>
  </clipPath>
  </defs>
  </svg>
  